<svg width="210" height="174" viewBox="0 0 210 174" fill="none" xmlns="http://www.w3.org/2000/svg">
<g clip-path="url(#clip0_469_23)">
<path d="M90.966 38.7344C95.8787 40.5073 98.535 44.0112 98.535 49.6881C98.535 55.3649 94.7923 60.1642 86.6442 61.0775V61.2446C94.9594 61.4118 99.7826 65.7335 99.7826 73.0519C99.7826 78.6869 97.2696 83.0982 92.5896 85.5456L92.4881 85.5994C89.8617 86.9484 86.5666 87.6886 82.6567 87.6886H51.9805V78.6272H55.3889C57.6334 78.6272 58.2184 77.8811 58.2184 75.7978V49.109C58.2184 46.9481 57.5498 46.3632 55.6396 46.3632H51.9805V37.3018H80.8301C84.746 37.3018 88.0768 37.7315 90.757 38.6568L90.9719 38.7344H90.966ZM79.4154 78.0422C83.9043 78.0422 86.2323 75.7978 86.2323 72.3057C86.2323 69.148 83.7371 67.0707 79.4154 67.0707H71.2673V75.9649C71.2673 77.4632 71.6016 78.0422 73.0939 78.0422H79.4154ZM71.2673 46.9481V57.09H77.9171C82.6567 57.09 84.9847 54.762 84.9847 51.7713C84.9847 48.7807 82.8238 46.9481 78.1678 46.9481H71.2673Z" fill="black"/>
<path fill-rule="evenodd" clip-rule="evenodd" d="M105 3.06822L2.84139 44.5966V128.889L105 170.418L207.159 128.889V44.5966L105 3.06822ZM105 0L210 42.6865V130.805L105 173.492L0 130.805V42.6865L105 0Z" fill="black"/>
<path d="M168.233 116.557H188.26V109.221H184.099V111.495C184.099 112.229 183.819 112.51 183.12 112.51H177.181C176.554 112.51 176.345 112.265 176.345 111.358V107.83H177.814C178.375 107.83 178.619 108.003 178.619 108.6V110.241H182.356V101.502H178.619V103.144C178.619 103.741 178.411 103.842 177.814 103.842H176.345V99.437H183.228C183.962 99.437 184.207 99.646 184.207 100.452V102.792H188.26V95.3839H168.233V99.1923H169.803C170.609 99.1923 170.853 99.437 170.853 100.344V111.561C170.853 112.432 170.609 112.749 169.665 112.749H168.233V116.557ZM145.251 116.557H156.258C163.457 116.557 167.684 112.05 167.684 105.478C167.684 98.9058 162.652 95.3779 156.396 95.3779H145.245V99.1863H146.815C147.621 99.1863 147.866 99.4311 147.866 100.338V111.555C147.866 112.426 147.621 112.743 146.678 112.743H145.245V116.551L145.251 116.557ZM153.357 100.374C153.357 99.7773 153.739 99.4311 154.336 99.4311H156.258C159.721 99.4311 161.816 101.705 161.816 105.651C161.816 109.597 159.512 112.498 155.667 112.498H153.363V100.374H153.357ZM141.765 100.374C141.765 99.4669 142.117 99.1863 142.917 99.1863H144.385V95.3779H133.659V99.1863H135.163C135.933 99.1863 136.279 99.4669 136.279 100.374V111.489C136.279 112.468 135.927 112.749 134.984 112.749H133.659V116.557H144.385V112.749H142.989C142.046 112.749 141.765 112.468 141.765 111.489V100.374ZM122.592 112.605C121.995 112.605 121.822 112.396 121.822 111.698V108.17H123.391C123.917 108.17 124.197 108.415 124.197 108.94V110.51H127.761V101.741H124.197V103.49C124.197 104.051 123.988 104.189 123.391 104.189H121.822V99.437H128.179C128.913 99.437 129.158 99.646 129.158 100.452V102.792H133.002V95.3839H113.709V99.1923H115.279C116.085 99.1923 116.33 99.4729 116.33 100.344V111.704C116.33 112.51 116.085 112.755 115.351 112.755H113.709V116.563H125.976V112.611H122.586L122.592 112.605ZM98.4875 112.743H96.3923L97.2996 110.05H104.534L105.442 112.743H103.275V116.551H113.094V112.743H112.533C111.59 112.743 111.208 112.39 110.748 111.173L106.486 99.1863H108.516V95.3779H94.0106V99.1863H96.1774L91.8437 111.209C91.4617 112.259 91.1095 112.749 90.1663 112.749H89.3963V116.557H98.4816V112.749L98.4875 112.743ZM100.654 99.9146H101.18L103.275 106.206H98.5592L100.654 99.9146ZM74.5924 95.372H65.2982V99.1804H66.7667C67.5367 99.1804 67.7456 99.3893 67.7456 100.368V111.447C67.7456 112.462 67.5367 112.743 66.6652 112.743H65.3042V116.551H74.5984V112.743H73.3389C72.3957 112.743 72.151 112.426 72.151 111.447V102.189H72.4972L80.0782 116.551H87.0325V100.512C87.0325 99.4251 87.2772 99.1863 88.2562 99.1863H89.4799V95.3779H79.9767V99.1863H81.3019C82.4182 99.1863 82.6271 99.4311 82.6271 100.512V109.495H82.2749L74.5865 95.3779L74.5924 95.372ZM48.1842 105.961C48.1842 101.699 50.3511 99.3236 53.5327 99.3236C56.7144 99.3236 58.8812 101.699 58.8812 105.896C58.8812 110.092 56.6069 112.57 53.5327 112.57C50.4585 112.57 48.1842 110.23 48.1842 105.967V105.961ZM42.3463 105.89C42.3463 112.772 46.8173 116.969 53.5268 116.969C60.2363 116.969 64.7073 112.534 64.7073 105.788C64.7073 99.0431 60.3377 94.9541 53.6282 94.9541C46.9187 94.9541 42.3403 99.252 42.3403 105.89H42.3463ZM21.7402 116.551H34.6339C39.2482 116.551 41.8329 114.104 41.8329 110.403C41.8329 107.328 39.8033 105.508 36.3113 105.442V105.371C39.7377 104.988 41.3076 103.066 41.3076 100.583C41.3076 96.8762 38.6154 95.3779 33.8639 95.3779H21.7402V99.1863H23.2803C24.0862 99.1863 24.3667 99.4311 24.3667 100.338V111.555C24.3667 112.426 24.122 112.743 23.1788 112.743H21.7462V116.551H21.7402ZM30.6166 112.498C29.9898 112.498 29.8465 112.253 29.8465 111.626V107.89H33.2729C35.0876 107.89 36.1382 108.761 36.1382 110.092C36.1382 111.561 35.1592 112.504 33.2729 112.504H30.6166V112.498ZM32.7476 99.4251C34.7056 99.4251 35.6129 100.195 35.6129 101.455C35.6129 102.714 34.6339 103.693 32.6402 103.693H29.8465V99.4311H32.7476V99.4251Z" fill="black"/>
<path d="M163.547 129.444C158.42 129.367 153.286 129.194 148.158 129.003C143.031 128.812 137.897 128.627 132.764 128.436V130.704C137.897 130.513 143.031 130.322 148.158 130.137C153.286 129.946 158.42 129.743 163.547 129.444Z" fill="black"/>
<path d="M123.648 133.396C123.307 133.396 123.206 133.277 123.206 132.871V130.835H124.113C124.418 130.835 124.579 130.978 124.579 131.277V132.184H126.632V127.122H124.579V128.131C124.579 128.453 124.459 128.531 124.113 128.531H123.206V125.791H126.877C127.301 125.791 127.444 125.911 127.444 126.376V127.725H129.659V123.451H118.532V125.648H119.439C119.905 125.648 120.042 125.809 120.042 126.31V132.859C120.042 133.324 119.899 133.462 119.475 133.462H118.526V135.658H125.6V133.378H123.642L123.648 133.396ZM105.811 135.676H117.362V131.444H114.962V132.751C114.962 133.175 114.801 133.336 114.395 133.336H110.969C110.605 133.336 110.485 133.193 110.485 132.674V130.638H111.333C111.655 130.638 111.799 130.74 111.799 131.08V132.029H113.953V126.991H111.799V127.94C111.799 128.28 111.679 128.34 111.333 128.34H110.485V125.803H114.455C114.879 125.803 115.022 125.922 115.022 126.388V127.737H117.362V123.463H105.811V125.66H106.719C107.184 125.66 107.322 125.803 107.322 126.322V132.793C107.322 133.295 107.178 133.48 106.635 133.48H105.811V135.676ZM93.0908 135.676H104.641V131.444H102.242V132.751C102.242 133.175 102.081 133.336 101.675 133.336H98.2483C97.8841 133.336 97.7647 133.193 97.7647 132.674V130.638H98.6124C98.9347 130.638 99.078 130.74 99.078 131.08V132.029H101.233V126.991H99.078V127.94C99.078 128.28 98.9586 128.34 98.6124 128.34H97.7647V125.803H101.734C102.158 125.803 102.301 125.922 102.301 126.388V127.737H104.641V123.463H93.0908V125.66H93.9981C94.4637 125.66 94.601 125.803 94.601 126.322V132.793C94.601 133.295 94.4578 133.48 93.9145 133.48H93.0908V135.676ZM80.4717 135.676H87.9094C90.5717 135.676 92.0641 134.268 92.0641 132.131C92.0641 130.358 90.8941 129.307 88.8765 129.271V129.229C90.8523 129.009 91.7596 127.898 91.7596 126.466C91.7596 124.329 90.2076 123.463 87.4677 123.463H80.4717V125.66H81.3611C81.8267 125.66 81.9879 125.803 81.9879 126.322V132.793C81.9879 133.295 81.8446 133.48 81.3014 133.48H80.4777V135.676H80.4717ZM85.5933 133.336C85.2292 133.336 85.1516 133.193 85.1516 132.835V130.68H87.1275C88.1781 130.68 88.7809 131.181 88.7809 131.951C88.7809 132.799 88.2139 133.342 87.1275 133.342H85.5933V133.336ZM86.823 125.797C87.9512 125.797 88.4765 126.239 88.4765 126.967C88.4765 127.695 87.9094 128.256 86.7633 128.256H85.1516V125.797H86.823Z" fill="black"/>
<path d="M46.4531 129.444C51.5808 129.367 56.7144 129.194 61.842 129.003C66.9696 128.812 72.1032 128.627 77.2368 128.436V130.704C72.1032 130.513 66.9696 130.322 61.842 130.137C56.7144 129.946 51.5808 129.743 46.4531 129.444Z" fill="black"/>
<path d="M112.474 38.6636C115.154 37.7384 118.479 37.3086 122.401 37.3086H151.25V46.37H147.591C145.681 46.37 145.012 46.955 145.012 49.1159V75.8046C145.012 77.8819 145.597 78.6341 147.842 78.6341H151.25V87.6955H120.574C116.664 87.6955 113.369 86.9553 110.743 85.6062L110.641 85.5525C105.961 83.1051 103.448 78.6938 103.448 73.0587C103.448 65.7404 108.271 61.4186 116.587 61.2515V61.0843C108.439 60.171 104.696 55.5985 104.696 49.6949C104.696 43.7913 107.352 40.5141 112.265 38.7412L112.48 38.6636H112.474ZM130.131 78.0431C131.629 78.0431 131.958 77.4581 131.958 75.9658V67.0715H123.81C119.488 67.0715 116.993 69.1488 116.993 72.3066C116.993 75.7986 119.321 78.0431 123.81 78.0431H130.131ZM125.057 46.949C120.401 46.949 118.24 48.7756 118.24 51.7722C118.24 54.7688 120.568 57.0909 125.308 57.0909H131.958V46.949H125.057Z" fill="black"/>
<path d="M44.6387 60.4805V64.086C44.6387 64.3725 44.5491 64.4501 44.2746 64.4501H43.6776V65.5544H47.2115V64.4501H46.6026C46.328 64.4501 46.2444 64.3665 46.2444 64.086V60.4805H46.8652C47.11 60.4805 47.1577 60.5343 47.1577 60.785V61.9311H48.5307V59.4061H42.3405V61.9311H43.7134V60.785C43.7134 60.5283 43.7672 60.4805 44 60.4805H44.6506H44.6387ZM39.8453 65.6798C40.9138 65.6798 41.9943 65.1008 41.9943 63.7816C41.9943 62.2295 40.6034 61.9848 39.6782 61.8236C38.9261 61.6923 38.4426 61.6028 38.4426 61.0715C38.4426 60.7671 38.7291 60.5462 39.135 60.5462C39.9468 60.5462 40.2512 60.8685 40.3706 61.3879H41.851V59.4061H40.6154L40.5855 60.0328C40.3109 59.615 39.7737 59.3105 38.9798 59.3105C38.0247 59.3105 36.8189 59.7762 36.8189 61.0775C36.8189 62.6892 38.1918 62.9459 39.0932 63.107C39.8453 63.2383 40.3647 63.3398 40.3647 63.8711C40.3647 64.2352 40.0483 64.4203 39.6245 64.4203C38.8425 64.4203 38.3351 64.1278 38.162 63.495H36.7413V65.5544H37.9889L38.0307 64.862C38.353 65.3575 38.9261 65.6738 39.8453 65.6738V65.6798ZM30.4258 65.5604H36.2399V63.4294H35.0341V64.092C35.0341 64.3069 34.9505 64.3845 34.7476 64.3845H33.0224C32.8374 64.3845 32.7777 64.3128 32.7777 64.0502V63.0235H33.2015C33.3627 63.0235 33.4343 63.0772 33.4343 63.2443V63.7219H34.5207V61.1849H33.4343V61.6625C33.4343 61.8356 33.3746 61.8654 33.2015 61.8654H32.7777V60.588H34.7774C34.9923 60.588 35.0639 60.6477 35.0639 60.8805V61.561H36.2399V59.412H30.4258V60.5163H30.8854C31.1182 60.5163 31.1899 60.588 31.1899 60.8506V64.1099C31.1899 64.3665 31.1182 64.4561 30.8436 64.4561H30.4258V65.5604Z" fill="black"/>
<path d="M175.623 63.2385C175.784 63.2266 175.934 63.2086 176.083 63.2086C177.002 63.2086 177.408 63.5847 177.408 64.1697C177.408 64.8621 176.883 65.1546 176.363 65.1546C175.928 65.1546 175.432 64.9517 175.39 64.0443H173.51C173.51 66.0321 174.769 66.7365 176.459 66.7365C178.369 66.7365 179.569 65.7098 179.569 64.1936C179.569 62.8923 178.745 62.3371 177.527 62.3013V62.2595C178.841 62.0864 179.396 61.3283 179.396 60.2718C179.396 59.0421 178.327 58.2422 176.596 58.2422C174.865 58.2422 173.594 59.054 173.594 60.7433V60.9045H175.432V60.8209C175.432 60.2538 175.719 59.7644 176.393 59.7644C176.829 59.7644 177.259 59.9793 177.259 60.5642C177.259 61.2567 176.704 61.6208 175.623 61.7402V63.2266V63.2385ZM173.038 64.6592V63.2266L172.215 63.1848C172.024 63.1728 171.97 63.0893 171.97 62.8982V58.3914H170.316L168.179 59.5674L168.723 60.815L169.916 60.2897V62.9042C169.916 63.0952 169.851 63.1728 169.66 63.1907L168.675 63.2325V64.6652H173.044L173.038 64.6592ZM163.631 61.5611C163.631 60.5165 164.007 59.8539 164.634 59.8539C165.213 59.8539 165.595 60.5165 165.595 61.5731C165.595 62.6296 165.189 63.2086 164.58 63.2086C163.971 63.2086 163.631 62.5699 163.631 61.5552V61.5611ZM161.422 61.591C161.422 63.5549 162.574 64.8263 164.496 64.8263C166.556 64.8263 167.797 63.4713 167.797 61.5372C167.797 59.6032 166.621 58.2482 164.669 58.2482C162.717 58.2482 161.422 59.6271 161.422 61.591ZM160.73 64.6652V62.5281H159.04V62.9042C159.04 63.0952 158.957 63.1728 158.754 63.1728H156.885L158.008 62.6177C159.727 61.7641 160.622 61.3582 160.622 60.1524C160.622 58.9466 159.554 58.2422 157.9 58.2422C155.871 58.2422 154.91 59.1197 154.91 60.612C154.91 60.6956 154.91 60.815 154.922 60.8806H156.844C156.832 60.815 156.832 60.7433 156.832 60.6896C156.832 60.1464 157.154 59.836 157.709 59.836C158.169 59.836 158.455 60.0688 158.455 60.4568C158.455 61 157.47 61.2806 156.521 61.8656L154.886 62.8684V64.6532H160.73V64.6652Z" fill="black"/>
<path fill-rule="evenodd" clip-rule="evenodd" d="M105 7.09775L6.57775 47.11V126.376L105.006 166.389L203.427 126.376V47.11L105 7.09775ZM105 5.34277L205.045 46.0176V127.469L105 168.144L4.9541 127.469V46.0176L105 5.34874V5.34277Z" fill="black"/>
</g>
<defs>
<clipPath id="clip0_469_23">
<rect width="210" height="173.486" fill="white"/>
</clipPath>
</defs>
</svg>
